<?xml version="1.0" encoding="UTF-8" standalone="no"?>
<!-- Created with Inkscape (http://www.inkscape.org/) -->

<svg
   width="1607"
   height="590"
   viewBox="0 0 425.18539 156.10417"
   version="1.1"
   id="svg1"
   inkscape:version="1.4.3 (fcd0343856, 2026-01-01)"
   sodipodi:docname="BigCat.svg"
   inkscape:export-filename="CatNewtral.png"
   inkscape:export-xdpi="96"
   inkscape:export-ydpi="96"
   xmlns:inkscape="http://www.inkscape.org/namespaces/inkscape"
   xmlns:sodipodi="http://sodipodi.sourceforge.net/DTD/sodipodi-0.dtd"
   xmlns="http://www.w3.org/2000/svg"
   xmlns:svg="http://www.w3.org/2000/svg">
  <sodipodi:namedview
     id="namedview1"
     pagecolor="#ffffff"
     bordercolor="#000000"
     borderopacity="0.25"
     inkscape:showpageshadow="2"
     inkscape:pageopacity="0.0"
     inkscape:pagecheckerboard="0"
     inkscape:deskcolor="#d1d1d1"
     inkscape:document-units="px"
     inkscape:zoom="0.35767748"
     inkscape:cx="787.02188"
     inkscape:cy="275.38776"
     inkscape:window-width="1854"
     inkscape:window-height="1011"
     inkscape:window-x="0"
     inkscape:window-y="0"
     inkscape:window-maximized="1"
     inkscape:current-layer="layer2" />
  <defs
     id="defs1">
    <filter
       inkscape:collect="always"
       style="color-interpolation-filters:sRGB"
       id="filter11"
       x="-0.028729921"
       y="-0.011157119"
       width="1.0574598"
       height="1.0223142">
      <feGaussianBlur
         inkscape:collect="always"
         stdDeviation="0.70755063"
         id="feGaussianBlur11" />
    </filter>
    <filter
       inkscape:collect="always"
       style="color-interpolation-filters:sRGB"
       id="filter11-3"
       x="-0.028729922"
       y="-0.011157119"
       width="1.0574598"
       height="1.0223142">
      <feGaussianBlur
         inkscape:collect="always"
         stdDeviation="0.70755063"
         id="feGaussianBlur11-7" />
    </filter>
    <filter
       inkscape:collect="always"
       style="color-interpolation-filters:sRGB"
       id="filter11-4"
       x="-0.02872992"
       y="-0.011157119"
       width="1.0574598"
       height="1.0223142">
      <feGaussianBlur
         inkscape:collect="always"
         stdDeviation="0.70755063"
         id="feGaussianBlur11-78" />
    </filter>
    <filter
       inkscape:collect="always"
       style="color-interpolation-filters:sRGB"
       id="filter11-37"
       x="-0.028729925"
       y="-0.011157119"
       width="1.0574598"
       height="1.0223142">
      <feGaussianBlur
         inkscape:collect="always"
         stdDeviation="0.70755063"
         id="feGaussianBlur11-4" />
    </filter>
    <filter
       inkscape:collect="always"
       style="color-interpolation-filters:sRGB"
       id="filter11-8"
       x="-0.028729925"
       y="-0.011157119"
       width="1.0574598"
       height="1.0223142">
      <feGaussianBlur
         inkscape:collect="always"
         stdDeviation="0.70755063"
         id="feGaussianBlur11-9" />
    </filter>
    <filter
       inkscape:collect="always"
       style="color-interpolation-filters:sRGB"
       id="filter11-49"
       x="-0.028729925"
       y="-0.011157119"
       width="1.0574598"
       height="1.0223142">
      <feGaussianBlur
         inkscape:collect="always"
         stdDeviation="0.70755063"
         id="feGaussianBlur11-0" />
    </filter>
  </defs>
  <g
     inkscape:label="Layer 1"
     inkscape:groupmode="layer"
     id="layer1">
    <path
       style="opacity:0.525;fill:#291c05;fill-opacity:1;stroke:none;stroke-width:1.219;stroke-linecap:round;stroke-linejoin:round;stroke-opacity:1;filter:url(#filter11)"
       d="M 51.783464,13.599697 60.675574,2.0922611 46.291278,6.7998483 c 0,0 -6.79985,-3.3999239 -18.307284,-3.3999242 -9.134943,-2e-7 -16.476558,4.1845222 -16.476558,4.1845222 L 1.5691958,1.5691959 6.2767834,19.353415 c 0,0 -4.7075876,5.230653 -1.0461305,17.784219 3.6614566,12.553567 8.6305771,15.430428 8.6305771,15.430428 0,0 -12.8150994,26.153267 -9.1536424,57.798708 1.4079893,12.16905 6.0468854,38.27737 14.9073604,41.84523 17.080687,6.87791 19.87648,-11.24591 19.87648,-11.24591"
       id="path11"
       sodipodi:nodetypes="cccscccscssc" />
    <ellipse
       style="opacity:1;fill:#eca528;fill-opacity:1;stroke:#000000;stroke-width:1.219;stroke-linecap:round;stroke-linejoin:round;stroke-opacity:1"
       id="path1"
       cx="36.614571"
       cy="98.467041"
       rx="21.445677"
       ry="54.268024" />
    <ellipse
       style="opacity:1;fill:#eca528;fill-opacity:1;stroke:#000000;stroke-width:1.219;stroke-linecap:round;stroke-linejoin:round;stroke-opacity:1"
       id="path2"
       cx="36.222271"
       cy="31.122383"
       rx="26.284031"
       ry="20.922613" />
    <ellipse
       style="opacity:1;fill:#fdf6e8;fill-opacity:1;stroke:#000000;stroke-width:1.219;stroke-linecap:round;stroke-linejoin:round;stroke-opacity:1"
       id="path3"
       cx="28.768591"
       cy="25.36867"
       rx="7.0613813"
       ry="7.3229141" />
    <ellipse
       style="opacity:1;fill:#fdf6e8;fill-opacity:1;stroke:#000000;stroke-width:1.219;stroke-linecap:round;stroke-linejoin:round;stroke-opacity:1"
       id="path4"
       cx="43.283653"
       cy="24.845602"
       rx="6.6690822"
       ry="7.3229141" />
    <circle
       style="opacity:1;fill:#3652ed;fill-opacity:1;stroke:#000000;stroke-width:1.219;stroke-linecap:round;stroke-linejoin:round;stroke-opacity:1"
       id="path5"
       cx="31.383919"
       cy="26.153263"
       r="2.8768589" />
    <ellipse
       style="opacity:1;fill:#3652ed;fill-opacity:1;stroke:#000000;stroke-width:1.219;stroke-linecap:round;stroke-linejoin:round;stroke-opacity:1"
       id="path6"
       cx="39.360664"
       cy="26.153263"
       rx="2.4845603"
       ry="2.8768589" />
    <ellipse
       style="opacity:1;fill:#ed5636;fill-opacity:1;stroke:#000000;stroke-width:1.219;stroke-linecap:round;stroke-linejoin:round;stroke-opacity:1"
       id="path7"
       cx="35.829971"
       cy="37.39917"
       rx="7.5844464"
       ry="2.3537939" />
    <path
       style="opacity:1;fill:none;fill-opacity:1;stroke:#000000;stroke-width:1.219;stroke-linecap:round;stroke-linejoin:round;stroke-opacity:1"
       d="m 27.460927,45.898977 c 0,0 -4.184521,-0.653831 9.153645,-0.130765 13.338164,0.523065 12.292033,0.653833 12.292033,0.653833"
       id="path8"
       sodipodi:nodetypes="csc" />
    <path
       style="opacity:1;fill:#eca528;fill-opacity:1;stroke:#000000;stroke-width:1.219;stroke-linecap:round;stroke-linejoin:round;stroke-opacity:1"
       d="M 12.030502,23.276405 9.4151755,3.1383916 22.753341,14.645828"
       id="path9" />
    <path
       style="opacity:1;fill:#eca528;fill-opacity:1;stroke:#000000;stroke-width:1.219;stroke-linecap:round;stroke-linejoin:round;stroke-opacity:1"
       d="M 52.044997,15.430426 69.044619,9.9382413 59.106377,25.107133"
       id="path10" />
    <path
       style="opacity:0.525;fill:#291c05;fill-opacity:1;stroke:none;stroke-width:1.219;stroke-linecap:round;stroke-linejoin:round;stroke-opacity:1;filter:url(#filter11-3)"
       d="m 122.5506,13.177309 8.89211,-11.5074358 -14.38429,4.7075873 c 0,0 -6.79985,-3.3999243 -18.307287,-3.3999243 -9.134943,0 -16.476558,4.1845223 -16.476558,4.1845223 l -9.93824,-6.0152503 4.707587,17.7842188 c 0,0 -4.707587,5.230653 -1.04613,17.784219 3.661457,12.553567 8.630577,15.430428 8.630577,15.430428 0,0 -12.815099,26.153267 -9.153642,57.798706 1.407989,12.16905 6.046885,38.27737 14.90736,41.84523 17.080683,6.87791 19.876483,-11.24591 19.876483,-11.24591"
       id="path11-2"
       sodipodi:nodetypes="cccscccscssc" />
    <ellipse
       style="fill:#eca528;fill-opacity:1;stroke:#000000;stroke-width:1.219;stroke-linecap:round;stroke-linejoin:round;stroke-opacity:1"
       id="path1-2"
       cx="107.38171"
       cy="98.044647"
       rx="21.445677"
       ry="54.268024" />
    <ellipse
       style="fill:#eca528;fill-opacity:1;stroke:#000000;stroke-width:1.219;stroke-linecap:round;stroke-linejoin:round;stroke-opacity:1"
       id="path2-8"
       cx="106.98941"
       cy="30.699995"
       rx="26.284031"
       ry="20.922613" />
    <ellipse
       style="fill:#fdf6e8;fill-opacity:1;stroke:#000000;stroke-width:1.219;stroke-linecap:round;stroke-linejoin:round;stroke-opacity:1"
       id="path3-9"
       cx="99.535728"
       cy="24.946281"
       rx="7.0613813"
       ry="7.3229141" />
    <ellipse
       style="fill:#fdf6e8;fill-opacity:1;stroke:#000000;stroke-width:1.219;stroke-linecap:round;stroke-linejoin:round;stroke-opacity:1"
       id="path4-7"
       cx="114.0508"
       cy="24.423214"
       rx="6.6690822"
       ry="7.3229141" />
    <circle
       style="fill:#3652ed;fill-opacity:1;stroke:#000000;stroke-width:1.219;stroke-linecap:round;stroke-linejoin:round;stroke-opacity:1"
       id="path5-3"
       cx="102.15106"
       cy="25.730875"
       r="2.8768589" />
    <ellipse
       style="fill:#3652ed;fill-opacity:1;stroke:#000000;stroke-width:1.219;stroke-linecap:round;stroke-linejoin:round;stroke-opacity:1"
       id="path6-6"
       cx="110.12781"
       cy="25.730875"
       rx="2.4845603"
       ry="2.8768589" />
    <ellipse
       style="fill:#ed5636;fill-opacity:1;stroke:#000000;stroke-width:1.219;stroke-linecap:round;stroke-linejoin:round;stroke-opacity:1"
       id="path7-1"
       cx="106.59711"
       cy="36.976784"
       rx="7.5844464"
       ry="2.3537939" />
    <path
       style="fill:none;fill-opacity:1;stroke:#000000;stroke-width:1.219;stroke-linecap:round;stroke-linejoin:round;stroke-opacity:1"
       d="m 98.228066,45.476589 c 0,0 -2.353793,-4.707587 10.984374,-4.184521 13.33816,0.523065 10.4613,4.707589 10.4613,4.707589"
       id="path8-2"
       sodipodi:nodetypes="csc" />
    <path
       style="fill:#eca528;fill-opacity:1;stroke:#000000;stroke-width:1.219;stroke-linecap:round;stroke-linejoin:round;stroke-opacity:1"
       d="M 82.797641,22.854017 80.182315,2.7160042 93.52048,14.22344"
       id="path9-9" />
    <path
       style="fill:#eca528;fill-opacity:1;stroke:#000000;stroke-width:1.219;stroke-linecap:round;stroke-linejoin:round;stroke-opacity:1"
       d="M 122.81214,15.008038 139.81176,9.5158535 129.87352,24.684745"
       id="path10-3" />
    <path
       style="opacity:0.525;fill:none;fill-opacity:1;stroke:none;stroke-width:1.219;stroke-linecap:round;stroke-linejoin:round;stroke-opacity:1"
       d="M 89.90755,25.468023 105.4418,14.557064 100.54111,11.320763 Z"
       id="path12" />
    <path
       style="opacity:0.525;fill:none;fill-opacity:1;stroke:none;stroke-width:1.219;stroke-linecap:round;stroke-linejoin:round;stroke-opacity:1"
       d="M 93.883577,22.69405 101.6507,14.741995 97.397277,12.89268 Z"
       id="path13" />
    <path
       style="opacity:0.525;fill:none;fill-opacity:1;stroke:none;stroke-width:1.219;stroke-linecap:round;stroke-linejoin:round;stroke-opacity:1"
       d="m 73.35618,31.2009 4.993151,-9.616439 -6.842466,-3.69863 z"
       id="path14" />
    <path
       style="opacity:0.525;fill:none;fill-opacity:1;stroke:none;stroke-width:1.219;stroke-linecap:round;stroke-linejoin:round;stroke-opacity:1"
       d="M 75.76029,37.118708 100.54111,13.262543 92.589057,4.7556942 Z"
       id="path15" />
    <path
       style="fill:#eca528;fill-opacity:1;stroke:#000000;stroke-width:1.219;stroke-linecap:round;stroke-linejoin:round;stroke-opacity:1"
       d="m 89.20519,24.030914 c 5.242559,0.534961 17.38299,-7.718973 14.90736,-8.761344 l -4.838353,-1.569196 c 0.171515,2.973134 -5.185568,6.683413 -10.069007,10.33054 z"
       id="path16"
       sodipodi:nodetypes="cccc" />
    <path
       style="fill:#eca528;fill-opacity:1;stroke:#000000;stroke-width:1.219;stroke-linecap:round;stroke-linejoin:round;stroke-opacity:1"
       d="m 111.04316,12.000412 -3.26915,2.353794 c 0,0 3.00762,3.269158 5.23065,4.96912 2.22303,1.699962 11.50744,2.092261 11.50744,2.092261 0,0 -2.22303,-1.569196 -6.27679,-4.053756 -4.05375,-2.48456 -7.19215,-5.361419 -7.19215,-5.361419 z"
       id="path17" />
    <path
       style="opacity:0.525;fill:#291c05;fill-opacity:1;stroke:none;stroke-width:1.219;stroke-linecap:round;stroke-linejoin:round;stroke-opacity:1;filter:url(#filter11-4)"
       d="M 193.5643,12.437583 202.45641,0.93014718 188.07212,5.6377345 c 0,0 -6.79985,-3.3999243 -18.30729,-3.3999243 -9.13494,0 -16.47656,4.1845223 -16.47656,4.1845223 l -9.93824,-6.01525032 4.70759,17.78421882 c 0,0 -4.70759,5.230653 -1.04613,17.784219 3.66146,12.553567 8.63058,15.430428 8.63058,15.430428 0,0 -12.8151,26.153267 -9.15365,57.798712 1.40799,12.16904 6.04689,38.27736 14.90736,41.84522 17.08069,6.87791 19.87649,-11.24591 19.87649,-11.24591"
       id="path11-0"
       sodipodi:nodetypes="cccscccscssc" />
    <ellipse
       style="fill:#eca528;fill-opacity:1;stroke:#000000;stroke-width:1.219;stroke-linecap:round;stroke-linejoin:round;stroke-opacity:1"
       id="path1-3"
       cx="178.39542"
       cy="97.304924"
       rx="21.445677"
       ry="54.268024" />
    <ellipse
       style="fill:#eca528;fill-opacity:1;stroke:#000000;stroke-width:1.219;stroke-linecap:round;stroke-linejoin:round;stroke-opacity:1"
       id="path2-6"
       cx="178.00311"
       cy="29.960268"
       rx="26.284031"
       ry="20.922613" />
    <ellipse
       style="fill:#fdf6e8;fill-opacity:1;stroke:#000000;stroke-width:1.219;stroke-linecap:round;stroke-linejoin:round;stroke-opacity:1"
       id="path3-1"
       cx="170.54942"
       cy="24.206554"
       rx="7.0613813"
       ry="7.3229141" />
    <ellipse
       style="fill:#fdf6e8;fill-opacity:1;stroke:#000000;stroke-width:1.219;stroke-linecap:round;stroke-linejoin:round;stroke-opacity:1"
       id="path4-0"
       cx="185.0645"
       cy="23.683487"
       rx="6.6690822"
       ry="7.3229141" />
    <circle
       style="fill:#3652ed;fill-opacity:1;stroke:#000000;stroke-width:1.219;stroke-linecap:round;stroke-linejoin:round;stroke-opacity:1"
       id="path5-6"
       cx="173.16476"
       cy="24.991148"
       r="2.8768589" />
    <ellipse
       style="fill:#3652ed;fill-opacity:1;stroke:#000000;stroke-width:1.219;stroke-linecap:round;stroke-linejoin:round;stroke-opacity:1"
       id="path6-3"
       cx="181.14151"
       cy="24.991148"
       rx="2.4845603"
       ry="2.8768589" />
    <ellipse
       style="fill:#ed5636;fill-opacity:1;stroke:#000000;stroke-width:1.219;stroke-linecap:round;stroke-linejoin:round;stroke-opacity:1"
       id="path7-2"
       cx="177.61081"
       cy="36.237057"
       rx="7.5844464"
       ry="2.3537939" />
    <path
       style="fill:#ec3f28;fill-opacity:1;stroke:#000000;stroke-width:1.219;stroke-linecap:round;stroke-linejoin:round;stroke-opacity:1"
       d="m 183.62606,48.659855 c 0,0 9.93824,-7.584448 -3.39992,-8.107513 -13.33817,-0.523066 -7.97675,7.584445 -7.97675,7.584445 0,0 0.26153,-5.492184 6.53832,-5.361417 6.27678,0.130766 4.83835,5.884485 4.83835,5.884485 z"
       id="path8-0"
       sodipodi:nodetypes="cscsc" />
    <path
       style="fill:#eca528;fill-opacity:1;stroke:#000000;stroke-width:1.219;stroke-linecap:round;stroke-linejoin:round;stroke-opacity:1"
       d="M 153.81134,22.114291 151.19601,1.9762782 164.53418,13.483714"
       id="path9-6" />
    <path
       style="fill:#eca528;fill-opacity:1;stroke:#000000;stroke-width:1.219;stroke-linecap:round;stroke-linejoin:round;stroke-opacity:1"
       d="M 193.82584,14.268312 210.82546,8.7761275 200.88722,23.945019"
       id="path10-1" />
    <path
       style="opacity:0.525;fill:none;fill-opacity:1;stroke:none;stroke-width:1.219;stroke-linecap:round;stroke-linejoin:round;stroke-opacity:1"
       d="M 160.92125,24.728297 176.4555,13.817338 171.55481,10.581037 Z"
       id="path12-5" />
    <path
       style="opacity:0.525;fill:none;fill-opacity:1;stroke:none;stroke-width:1.219;stroke-linecap:round;stroke-linejoin:round;stroke-opacity:1"
       d="m 164.89727,21.954324 7.76713,-7.952055 -4.25343,-1.849315 z"
       id="path13-5" />
    <path
       style="opacity:0.525;fill:none;fill-opacity:1;stroke:none;stroke-width:1.219;stroke-linecap:round;stroke-linejoin:round;stroke-opacity:1"
       d="m 144.36988,30.461174 4.99315,-9.616439 -6.84247,-3.69863 z"
       id="path14-4" />
    <path
       style="opacity:0.525;fill:none;fill-opacity:1;stroke:none;stroke-width:1.219;stroke-linecap:round;stroke-linejoin:round;stroke-opacity:1"
       d="M 146.77399,36.378982 171.55481,12.522817 163.60275,4.0159682 Z"
       id="path15-7" />
    <path
       style="fill:#eca528;fill-opacity:1;stroke:#000000;stroke-width:1.219;stroke-linecap:round;stroke-linejoin:round;stroke-opacity:1"
       d="m 159.43429,16.622106 c 7.46559,-1.818833 19.73679,6.403789 17.26116,5.361418 l 1.56919,-6.276783 c 0.17152,2.973134 -6.10093,-5.347089 -18.83035,0.915365 z"
       id="path16-6"
       sodipodi:nodetypes="cccc" />
    <path
       style="fill:#eca528;fill-opacity:1;stroke:#000000;stroke-width:1.219;stroke-linecap:round;stroke-linejoin:round;stroke-opacity:1"
       d="m 177.74158,15.706741 1.69996,5.753718 c 0,0 5.09988,0.261533 4.57682,-2.876859 -0.46007,-2.760444 10.06901,-4.576821 10.06901,-4.576821 0,0 -7.42108,-4.4276648 -9.15365,0 -1.17689,3.007625 -7.19214,1.699962 -7.19214,1.699962 z"
       id="path17-5"
       sodipodi:nodetypes="ccscsc" />
    <path
       style="opacity:0.525;fill:#291c05;fill-opacity:1;stroke:none;stroke-width:1.219;stroke-linecap:round;stroke-linejoin:round;stroke-opacity:1;filter:url(#filter11-37)"
       d="M 264.57799,12.437583 273.4701,0.93014718 259.08581,5.6377345 c 0,0 -6.79985,-3.3999243 -18.30728,-3.3999243 -9.13495,0 -16.47656,4.1845223 -16.47656,4.1845223 l -9.93824,-6.01525032 4.70759,17.78421882 c 0,0 -4.70759,5.230653 -1.04613,17.784219 3.66145,12.553567 8.63057,15.430428 8.63057,15.430428 0,0 -12.8151,26.153267 -9.15364,57.798712 1.40799,12.16904 6.04689,38.27736 14.90736,41.84522 17.08068,6.87791 19.87648,-11.24591 19.87648,-11.24591"
       id="path11-5"
       sodipodi:nodetypes="cccscccscssc" />
    <ellipse
       style="fill:#eca528;fill-opacity:1;stroke:#000000;stroke-width:1.219;stroke-linecap:round;stroke-linejoin:round;stroke-opacity:1"
       id="path1-4"
       cx="249.4091"
       cy="97.304924"
       rx="21.445677"
       ry="54.268024" />
    <ellipse
       style="fill:#eca528;fill-opacity:1;stroke:#000000;stroke-width:1.219;stroke-linecap:round;stroke-linejoin:round;stroke-opacity:1"
       id="path2-7"
       cx="249.0168"
       cy="29.960268"
       rx="26.284031"
       ry="20.922613" />
    <ellipse
       style="fill:#fdf6e8;fill-opacity:1;stroke:#000000;stroke-width:1.219;stroke-linecap:round;stroke-linejoin:round;stroke-opacity:1"
       id="path3-4"
       cx="241.56313"
       cy="24.206554"
       rx="7.0613813"
       ry="7.3229141" />
    <ellipse
       style="fill:#fdf6e8;fill-opacity:1;stroke:#000000;stroke-width:1.219;stroke-linecap:round;stroke-linejoin:round;stroke-opacity:1"
       id="path4-4"
       cx="256.07819"
       cy="23.683487"
       rx="6.6690822"
       ry="7.3229141" />
    <circle
       style="fill:#3652ed;fill-opacity:1;stroke:#000000;stroke-width:1.219;stroke-linecap:round;stroke-linejoin:round;stroke-opacity:1"
       id="path5-30"
       cx="244.17845"
       cy="24.991148"
       r="2.8768589" />
    <ellipse
       style="fill:#3652ed;fill-opacity:1;stroke:#000000;stroke-width:1.219;stroke-linecap:round;stroke-linejoin:round;stroke-opacity:1"
       id="path6-7"
       cx="252.1552"
       cy="24.991148"
       rx="2.4845603"
       ry="2.8768589" />
    <ellipse
       style="fill:#ed5636;fill-opacity:1;stroke:#000000;stroke-width:1.219;stroke-linecap:round;stroke-linejoin:round;stroke-opacity:1"
       id="path7-8"
       cx="248.62451"
       cy="36.237057"
       rx="7.5844464"
       ry="2.3537939" />
    <path
       style="fill:#eca528;fill-opacity:1;stroke:#000000;stroke-width:1.219;stroke-linecap:round;stroke-linejoin:round;stroke-opacity:1"
       d="M 224.82503,22.114291 222.20971,1.9762782 235.54787,13.483714"
       id="path9-68" />
    <path
       style="fill:#eca528;fill-opacity:1;stroke:#000000;stroke-width:1.219;stroke-linecap:round;stroke-linejoin:round;stroke-opacity:1"
       d="M 264.83953,14.268312 281.83915,8.7761275 271.90091,23.945019"
       id="path10-8" />
    <path
       style="opacity:0.525;fill:none;fill-opacity:1;stroke:none;stroke-width:1.219;stroke-linecap:round;stroke-linejoin:round;stroke-opacity:1"
       d="M 231.93494,24.728297 247.46919,13.817338 242.5685,10.581037 Z"
       id="path12-4" />
    <path
       style="opacity:0.525;fill:none;fill-opacity:1;stroke:none;stroke-width:1.219;stroke-linecap:round;stroke-linejoin:round;stroke-opacity:1"
       d="m 235.91097,21.954324 7.76712,-7.952055 -4.25342,-1.849315 z"
       id="path13-3" />
    <path
       style="opacity:0.525;fill:none;fill-opacity:1;stroke:none;stroke-width:1.219;stroke-linecap:round;stroke-linejoin:round;stroke-opacity:1"
       d="m 215.38357,30.461174 4.99315,-9.616439 -6.84246,-3.69863 z"
       id="path14-1" />
    <path
       style="opacity:0.525;fill:none;fill-opacity:1;stroke:none;stroke-width:1.219;stroke-linecap:round;stroke-linejoin:round;stroke-opacity:1"
       d="M 217.78768,36.378982 242.5685,12.522817 234.61645,4.0159682 Z"
       id="path15-4" />
    <path
       style="fill:#eca528;fill-opacity:1;stroke:#000000;stroke-width:1.219;stroke-linecap:round;stroke-linejoin:round;stroke-opacity:1"
       d="m 230.44799,16.622106 c 7.46558,-1.818833 18.55988,7.319153 16.08425,6.276782 l 1.43843,-4.707587 c 0.17152,2.973134 -4.79327,-7.831649 -17.52268,-1.569195 z"
       id="path16-9"
       sodipodi:nodetypes="cccc" />
    <path
       style="fill:#eca528;fill-opacity:1;stroke:#000000;stroke-width:1.219;stroke-linecap:round;stroke-linejoin:round;stroke-opacity:1"
       d="m 246.663,14.006778 2.87686,2.615327 c 0,0 3.39993,-1.830729 5.75373,-4.446055 1.87211,-2.080124 9.80747,1.830729 9.80747,1.830729 0,0 -9.12105,-6.1276271 -10.59208,-4.5768211 -2.22267,2.3432081 -7.84598,4.5768201 -7.84598,4.5768201 z"
       id="path17-2"
       sodipodi:nodetypes="ccscsc" />
    <path
       style="fill:none;fill-opacity:1;stroke:#000000;stroke-width:1.219;stroke-linecap:round;stroke-linejoin:round;stroke-opacity:1"
       d="m 242.34772,43.952266 c 0,0 1.40564,-2.308891 7.32291,-1.830728 12.94587,1.04613 6.93062,-0.130766 6.93062,-0.130766"
       id="path18"
       sodipodi:nodetypes="csc" />
    <path
       style="opacity:0.525;fill:#291c05;fill-opacity:1;stroke:none;stroke-width:1.219;stroke-linecap:round;stroke-linejoin:round;stroke-opacity:1;filter:url(#filter11-8)"
       d="m 335.66216,13.177309 8.89211,-11.5074358 -14.38429,4.7075873 c 0,0 -6.79985,-3.3999243 -18.30729,-3.3999243 -9.13494,0 -16.47655,4.1845223 -16.47655,4.1845223 l -9.93824,-6.0152503 4.70758,17.7842188 c 0,0 -4.70758,5.230653 -1.04613,17.784219 3.66146,12.553567 8.63058,15.430428 8.63058,15.430428 0,0 -12.8151,26.153267 -9.15364,57.798706 1.40799,12.16905 6.04688,38.27737 14.90736,41.84523 17.08068,6.87791 19.87648,-11.24591 19.87648,-11.24591"
       id="path11-6"
       sodipodi:nodetypes="cccscccscssc" />
    <ellipse
       style="fill:#eca528;fill-opacity:1;stroke:#000000;stroke-width:1.219;stroke-linecap:round;stroke-linejoin:round;stroke-opacity:1"
       id="path1-49"
       cx="320.49326"
       cy="98.044647"
       rx="21.445677"
       ry="54.268024" />
    <ellipse
       style="fill:#eca528;fill-opacity:1;stroke:#000000;stroke-width:1.219;stroke-linecap:round;stroke-linejoin:round;stroke-opacity:1"
       id="path2-5"
       cx="320.10095"
       cy="30.699995"
       rx="26.284031"
       ry="20.922613" />
    <ellipse
       style="fill:#fdf6e8;fill-opacity:1;stroke:#000000;stroke-width:1.219;stroke-linecap:round;stroke-linejoin:round;stroke-opacity:1"
       id="path3-0"
       cx="312.64728"
       cy="24.946281"
       rx="7.0613813"
       ry="7.3229141" />
    <ellipse
       style="fill:#fdf6e8;fill-opacity:1;stroke:#000000;stroke-width:1.219;stroke-linecap:round;stroke-linejoin:round;stroke-opacity:1"
       id="path4-48"
       cx="327.16232"
       cy="24.423214"
       rx="6.6690822"
       ry="7.3229141" />
    <circle
       style="fill:#3652ed;fill-opacity:1;stroke:#000000;stroke-width:1.219;stroke-linecap:round;stroke-linejoin:round;stroke-opacity:1"
       id="path5-7"
       cx="315.2626"
       cy="25.730875"
       r="2.8768589" />
    <ellipse
       style="fill:#3652ed;fill-opacity:1;stroke:#000000;stroke-width:1.219;stroke-linecap:round;stroke-linejoin:round;stroke-opacity:1"
       id="path6-1"
       cx="323.23935"
       cy="25.730875"
       rx="2.4845603"
       ry="2.8768589" />
    <ellipse
       style="fill:#ed5636;fill-opacity:1;stroke:#000000;stroke-width:1.219;stroke-linecap:round;stroke-linejoin:round;stroke-opacity:1"
       id="path7-7"
       cx="319.70865"
       cy="36.976784"
       rx="7.5844464"
       ry="2.3537939" />
    <path
       style="fill:#eca528;fill-opacity:1;stroke:#000000;stroke-width:1.219;stroke-linecap:round;stroke-linejoin:round;stroke-opacity:1"
       d="M 295.9092,22.854017 293.29388,2.7160042 306.63204,14.22344"
       id="path9-2" />
    <path
       style="fill:#eca528;fill-opacity:1;stroke:#000000;stroke-width:1.219;stroke-linecap:round;stroke-linejoin:round;stroke-opacity:1"
       d="M 335.9237,15.008038 352.92332,9.5158535 342.98508,24.684745"
       id="path10-7" />
    <path
       style="opacity:0.525;fill:none;fill-opacity:1;stroke:none;stroke-width:1.219;stroke-linecap:round;stroke-linejoin:round;stroke-opacity:1"
       d="m 303.01911,25.468023 15.53425,-10.910959 -4.90069,-3.236301 z"
       id="path12-2" />
    <path
       style="opacity:0.525;fill:none;fill-opacity:1;stroke:none;stroke-width:1.219;stroke-linecap:round;stroke-linejoin:round;stroke-opacity:1"
       d="m 306.99514,22.69405 7.76712,-7.952055 -4.25342,-1.849315 z"
       id="path13-2" />
    <path
       style="opacity:0.525;fill:none;fill-opacity:1;stroke:none;stroke-width:1.219;stroke-linecap:round;stroke-linejoin:round;stroke-opacity:1"
       d="m 286.46774,31.2009 4.99315,-9.616439 -6.84246,-3.69863 z"
       id="path14-6" />
    <path
       style="opacity:0.525;fill:none;fill-opacity:1;stroke:none;stroke-width:1.219;stroke-linecap:round;stroke-linejoin:round;stroke-opacity:1"
       d="M 288.87185,37.118708 313.65267,13.262543 305.70062,4.7556942 Z"
       id="path15-1" />
    <path
       style="fill:#eca528;fill-opacity:1;stroke:#000000;stroke-width:1.219;stroke-linecap:round;stroke-linejoin:round;stroke-opacity:1"
       d="m 301.53215,17.361832 c 7.46559,-1.818833 18.55989,7.319153 16.08426,6.276782 l 1.43843,-4.707587 c 0.17152,2.973134 -4.79327,-7.831649 -17.52269,-1.569195 z"
       id="path16-0"
       sodipodi:nodetypes="cccc" />
    <path
       style="fill:#eca528;fill-opacity:1;stroke:#000000;stroke-width:1.219;stroke-linecap:round;stroke-linejoin:round;stroke-opacity:1"
       d="m 320.23173,19.454092 0.91537,3.661457 c 0,0 1.69996,-0.392299 4.05376,-3.007625 1.87211,-2.080124 10.98437,-5.361419 10.98437,-5.361419 0,0 -9.77488,-0.766208 -11.24591,0.784598 -2.22267,2.343208 -4.70759,3.922989 -4.70759,3.922989 z"
       id="path17-6"
       sodipodi:nodetypes="ccscsc" />
    <path
       style="fill:none;fill-opacity:1;stroke:#000000;stroke-width:1.219;stroke-linecap:round;stroke-linejoin:round;stroke-opacity:1"
       d="m 313.43189,44.691992 c 0,0 1.69996,-1.699962 7.58444,-2.48456 5.88449,-0.784598 5.49219,2.223028 5.49219,2.223028"
       id="path18-1"
       sodipodi:nodetypes="csc" />
    <path
       style="opacity:0.525;fill:#291c05;fill-opacity:1;stroke:none;stroke-width:1.219;stroke-linecap:round;stroke-linejoin:round;stroke-opacity:1;filter:url(#filter11-49)"
       d="m 406.7646,12.97514 8.89211,-11.507436 -14.38429,4.707587 c 0,0 -6.79985,-3.399924 -18.30729,-3.399924 -9.13494,0 -16.47655,4.184522 -16.47655,4.184522 l -9.93824,-6.01524997 4.70758,17.78421897 c 0,0 -4.70758,5.230653 -1.04613,17.784219 3.66146,12.553567 8.63058,15.430428 8.63058,15.430428 0,0 -12.8151,26.153267 -9.15364,57.798705 1.40799,12.16905 6.04688,38.27737 14.90736,41.84523 17.08068,6.87791 19.87648,-11.24591 19.87648,-11.24591"
       id="path11-7"
       sodipodi:nodetypes="cccscccscssc" />
    <ellipse
       style="fill:#eca528;fill-opacity:1;stroke:#000000;stroke-width:1.219;stroke-linecap:round;stroke-linejoin:round;stroke-opacity:1"
       id="path1-7"
       cx="391.5957"
       cy="97.842484"
       rx="21.445677"
       ry="54.268024" />
    <ellipse
       style="fill:#eca528;fill-opacity:1;stroke:#000000;stroke-width:1.219;stroke-linecap:round;stroke-linejoin:round;stroke-opacity:1"
       id="path2-1"
       cx="391.2034"
       cy="30.497824"
       rx="26.284031"
       ry="20.922613" />
    <ellipse
       style="fill:#fdf6e8;fill-opacity:1;stroke:#000000;stroke-width:1.219;stroke-linecap:round;stroke-linejoin:round;stroke-opacity:1"
       id="path3-15"
       cx="383.74973"
       cy="24.744112"
       rx="7.0613813"
       ry="7.3229141" />
    <ellipse
       style="fill:#fdf6e8;fill-opacity:1;stroke:#000000;stroke-width:1.219;stroke-linecap:round;stroke-linejoin:round;stroke-opacity:1"
       id="path4-9"
       cx="398.2648"
       cy="24.221045"
       rx="6.6690822"
       ry="7.3229141" />
    <circle
       style="fill:#3652ed;fill-opacity:1;stroke:#000000;stroke-width:1.219;stroke-linecap:round;stroke-linejoin:round;stroke-opacity:1"
       id="path5-77"
       cx="386.36505"
       cy="25.528704"
       r="2.8768589" />
    <ellipse
       style="fill:#3652ed;fill-opacity:1;stroke:#000000;stroke-width:1.219;stroke-linecap:round;stroke-linejoin:round;stroke-opacity:1"
       id="path6-67"
       cx="394.3418"
       cy="25.528704"
       rx="2.4845603"
       ry="2.8768589" />
    <ellipse
       style="fill:#ed5636;fill-opacity:1;stroke:#000000;stroke-width:1.219;stroke-linecap:round;stroke-linejoin:round;stroke-opacity:1"
       id="path7-3"
       cx="390.81113"
       cy="36.774612"
       rx="7.5844464"
       ry="2.3537939" />
    <path
       style="fill:#ed5636;fill-opacity:1;stroke:#000000;stroke-width:1.219;stroke-linecap:round;stroke-linejoin:round;stroke-opacity:1"
       d="m 373.81149,42.78986 c 0,0 2.61533,4.969121 15.95349,5.492187 13.33817,0.523065 17.78422,-7.845978 17.78422,-7.845978 l -1.30766,-0.261533"
       id="path8-6" />
    <path
       style="fill:#eca528;fill-opacity:1;stroke:#000000;stroke-width:1.219;stroke-linecap:round;stroke-linejoin:round;stroke-opacity:1"
       d="M 367.01164,22.651848 364.39632,2.513834 377.73448,14.021271"
       id="path9-5" />
    <path
       style="fill:#eca528;fill-opacity:1;stroke:#000000;stroke-width:1.219;stroke-linecap:round;stroke-linejoin:round;stroke-opacity:1"
       d="m 407.02614,14.805869 16.99962,-5.492185 -9.93824,15.168892"
       id="path10-6" />
  </g>
  <g
     inkscape:groupmode="layer"
     id="layer2"
     inkscape:label="Layer 2"
     sodipodi:insensitive="true"
     style="display:none">
    <rect
       style="fill:none;stroke:#000000;stroke-width:1.219;stroke-linecap:round;stroke-linejoin:round"
       id="rect2"
       width="70.643829"
       height="154.23286"
       x="-0.369863"
       y="0.369863" />
    <rect
       style="fill:none;stroke:#000000;stroke-width:1.219;stroke-linecap:round;stroke-linejoin:round"
       id="rect2-3"
       width="70.643829"
       height="154.23286"
       x="70.700676"
       y="0.49600351" />
    <rect
       style="fill:none;stroke:#000000;stroke-width:1.219;stroke-linecap:round;stroke-linejoin:round"
       id="rect2-1"
       width="70.643829"
       height="154.23286"
       x="141.4857"
       y="0.42813593" />
    <rect
       style="fill:none;stroke:#000000;stroke-width:1.219;stroke-linecap:round;stroke-linejoin:round"
       id="rect2-36"
       width="70.643829"
       height="154.23286"
       x="212.502"
       y="0.53618544" />
    <rect
       style="fill:none;stroke:#000000;stroke-width:1.219;stroke-linecap:round;stroke-linejoin:round"
       id="rect2-3-0"
       width="70.643829"
       height="154.23286"
       x="283.57254"
       y="0.66232222" />
    <rect
       style="fill:none;stroke:#000000;stroke-width:1.219;stroke-linecap:round;stroke-linejoin:round"
       id="rect2-1-6"
       width="70.643829"
       height="154.23286"
       x="354.35757"
       y="0.59445876" />
    <rect
       style="fill:none;stroke:#000000;stroke-width:1.219;stroke-linecap:round;stroke-linejoin:round"
       id="rect2-7"
       width="70.643829"
       height="154.23286"
       x="425.1218"
       y="0.97651291" />
    <rect
       style="fill:none;stroke:#000000;stroke-width:1.219;stroke-linecap:round;stroke-linejoin:round"
       id="rect2-3-9"
       width="70.643829"
       height="154.23286"
       x="496.19232"
       y="1.1026497" />
    <rect
       style="fill:none;stroke:#000000;stroke-width:1.219;stroke-linecap:round;stroke-linejoin:round"
       id="rect2-1-2"
       width="70.643829"
       height="154.23286"
       x="566.97736"
       y="1.0347862" />
  </g>
</svg>
