<?xml version="1.0" encoding="UTF-8" standalone="no"?>
<!-- Created with Inkscape (http://www.inkscape.org/) -->

<svg
   width="265"
   height="590"
   viewBox="0 0 70.114581 156.10417"
   version="1.1"
   id="svg1"
   inkscape:version="1.4.3 (fcd0343856, 2026-01-01)"
   sodipodi:docname="CatFrowning.svg"
   inkscape:export-filename="CatFrowningy.png"
   inkscape:export-xdpi="96"
   inkscape:export-ydpi="96"
   xmlns:inkscape="http://www.inkscape.org/namespaces/inkscape"
   xmlns:sodipodi="http://sodipodi.sourceforge.net/DTD/sodipodi-0.dtd"
   xmlns="http://www.w3.org/2000/svg"
   xmlns:svg="http://www.w3.org/2000/svg">
  <sodipodi:namedview
     id="namedview1"
     pagecolor="#ffffff"
     bordercolor="#000000"
     borderopacity="0.25"
     inkscape:showpageshadow="2"
     inkscape:pageopacity="0.0"
     inkscape:pagecheckerboard="0"
     inkscape:deskcolor="#d1d1d1"
     inkscape:document-units="mm"
     inkscape:zoom="2.0233293"
     inkscape:cx="200.41226"
     inkscape:cy="160.37923"
     inkscape:window-width="1854"
     inkscape:window-height="1011"
     inkscape:window-x="0"
     inkscape:window-y="0"
     inkscape:window-maximized="1"
     inkscape:current-layer="layer1" />
  <defs
     id="defs1">
    <filter
       inkscape:collect="always"
       style="color-interpolation-filters:sRGB"
       id="filter11"
       x="-0.028729921"
       y="-0.011157119"
       width="1.0574598"
       height="1.0223142">
      <feGaussianBlur
         inkscape:collect="always"
         stdDeviation="0.70755063"
         id="feGaussianBlur11" />
    </filter>
  </defs>
  <g
     inkscape:label="Layer 1"
     inkscape:groupmode="layer"
     id="layer1">
    <path
       style="opacity:0.525;fill:#291c05;fill-opacity:1;stroke:none;stroke-width:1.219;stroke-linecap:round;stroke-linejoin:round;stroke-opacity:1;filter:url(#filter11)"
       d="M 51.783464,13.599697 60.675574,2.0922611 46.291278,6.7998483 c 0,0 -6.79985,-3.3999239 -18.307284,-3.3999242 -9.134943,-2e-7 -16.476558,4.1845222 -16.476558,4.1845222 L 1.5691958,1.5691959 6.2767834,19.353415 c 0,0 -4.7075876,5.230653 -1.0461305,17.784219 3.6614566,12.553567 8.6305771,15.430428 8.6305771,15.430428 0,0 -12.8150994,26.153267 -9.1536424,57.798708 1.4079893,12.16905 6.0468854,38.27737 14.9073604,41.84523 17.080687,6.87791 19.87648,-11.24591 19.87648,-11.24591"
       id="path11"
       sodipodi:nodetypes="cccscccscssc" />
    <ellipse
       style="opacity:1;fill:#eca528;fill-opacity:1;stroke:#000000;stroke-width:1.219;stroke-linecap:round;stroke-linejoin:round;stroke-opacity:1"
       id="path1"
       cx="36.614571"
       cy="98.467041"
       rx="21.445677"
       ry="54.268024" />
    <ellipse
       style="opacity:1;fill:#eca528;fill-opacity:1;stroke:#000000;stroke-width:1.219;stroke-linecap:round;stroke-linejoin:round;stroke-opacity:1"
       id="path2"
       cx="36.222271"
       cy="31.122383"
       rx="26.284031"
       ry="20.922613" />
    <ellipse
       style="opacity:1;fill:#fdf6e8;fill-opacity:1;stroke:#000000;stroke-width:1.219;stroke-linecap:round;stroke-linejoin:round;stroke-opacity:1"
       id="path3"
       cx="28.768591"
       cy="25.36867"
       rx="7.0613813"
       ry="7.3229141" />
    <ellipse
       style="opacity:1;fill:#fdf6e8;fill-opacity:1;stroke:#000000;stroke-width:1.219;stroke-linecap:round;stroke-linejoin:round;stroke-opacity:1"
       id="path4"
       cx="43.283653"
       cy="24.845602"
       rx="6.6690822"
       ry="7.3229141" />
    <circle
       style="opacity:1;fill:#3652ed;fill-opacity:1;stroke:#000000;stroke-width:1.219;stroke-linecap:round;stroke-linejoin:round;stroke-opacity:1"
       id="path5"
       cx="31.383919"
       cy="26.153263"
       r="2.8768589" />
    <ellipse
       style="opacity:1;fill:#3652ed;fill-opacity:1;stroke:#000000;stroke-width:1.219;stroke-linecap:round;stroke-linejoin:round;stroke-opacity:1"
       id="path6"
       cx="39.360664"
       cy="26.153263"
       rx="2.4845603"
       ry="2.8768589" />
    <ellipse
       style="opacity:1;fill:#ed5636;fill-opacity:1;stroke:#000000;stroke-width:1.219;stroke-linecap:round;stroke-linejoin:round;stroke-opacity:1"
       id="path7"
       cx="35.829971"
       cy="37.39917"
       rx="7.5844464"
       ry="2.3537939" />
    <path
       style="opacity:1;fill:#eca528;fill-opacity:1;stroke:#000000;stroke-width:1.219;stroke-linecap:round;stroke-linejoin:round;stroke-opacity:1"
       d="M 12.030502,23.276405 9.4151755,3.1383916 22.753341,14.645828"
       id="path9" />
    <path
       style="opacity:1;fill:#eca528;fill-opacity:1;stroke:#000000;stroke-width:1.219;stroke-linecap:round;stroke-linejoin:round;stroke-opacity:1"
       d="M 52.044997,15.430426 69.044619,9.9382413 59.106377,25.107133"
       id="path10" />
    <path
       style="opacity:0.525;fill:none;fill-opacity:1;stroke:none;stroke-width:1.219;stroke-linecap:round;stroke-linejoin:round;stroke-opacity:1"
       d="M 19.140411,25.890411 34.674656,14.979452 29.773972,11.743151 Z"
       id="path12" />
    <path
       style="opacity:0.525;fill:none;fill-opacity:1;stroke:none;stroke-width:1.219;stroke-linecap:round;stroke-linejoin:round;stroke-opacity:1"
       d="m 23.116438,23.116438 7.767123,-7.952055 -4.253423,-1.849315 z"
       id="path13" />
    <path
       style="opacity:0.525;fill:none;fill-opacity:1;stroke:none;stroke-width:1.219;stroke-linecap:round;stroke-linejoin:round;stroke-opacity:1"
       d="M 2.5890411,31.623288 7.5821917,22.006849 0.73972602,18.308219 Z"
       id="path14" />
    <path
       style="opacity:0.525;fill:none;fill-opacity:1;stroke:none;stroke-width:1.219;stroke-linecap:round;stroke-linejoin:round;stroke-opacity:1"
       d="M 4.9931507,37.541096 29.773972,13.684931 21.821918,5.178082 Z"
       id="path15" />
    <path
       style="opacity:1;fill:#eca528;fill-opacity:1;stroke:#000000;stroke-width:1.219;stroke-linecap:round;stroke-linejoin:round;stroke-opacity:1"
       d="m 17.653453,17.78422 c 7.465587,-1.818833 18.559886,7.319153 16.084257,6.276782 l 1.438431,-4.707587 c 0.171515,2.973134 -4.79327,-7.831649 -17.522688,-1.569195 z"
       id="path16"
       sodipodi:nodetypes="cccc" />
    <path
       style="opacity:1;fill:#eca528;fill-opacity:1;stroke:#000000;stroke-width:1.219;stroke-linecap:round;stroke-linejoin:round;stroke-opacity:1"
       d="m 36.353035,19.87648 0.915366,3.661457 c 0,0 1.699961,-0.392299 4.053756,-3.007625 1.872113,-2.080124 10.98437,-5.361419 10.98437,-5.361419 0,0 -9.774873,-0.766208 -11.245904,0.784598 -2.222672,2.343208 -4.707588,3.922989 -4.707588,3.922989 z"
       id="path17"
       sodipodi:nodetypes="ccscsc" />
    <path
       style="opacity:1;fill:none;fill-opacity:1;stroke:#000000;stroke-width:1.219;stroke-linecap:round;stroke-linejoin:round;stroke-opacity:1"
       d="m 29.553188,45.11438 c 0,0 1.699961,-1.699962 7.584445,-2.48456 5.884487,-0.784598 5.492188,2.223028 5.492188,2.223028"
       id="path18"
       sodipodi:nodetypes="csc" />
  </g>
</svg>
