<?xml version="1.0" encoding="UTF-8" standalone="no"?>
<!-- Created with Inkscape (http://www.inkscape.org/) -->

<svg
   width="625"
   height="60"
   viewBox="0 0 165.36458 15.875"
   version="1.1"
   id="svg1"
   inkscape:version="1.4.3 (fcd0343856, 2026-01-01)"
   sodipodi:docname="PlayerChoice.svg"
   inkscape:export-filename="PlayerChoice.png"
   inkscape:export-xdpi="96"
   inkscape:export-ydpi="96"
   xmlns:inkscape="http://www.inkscape.org/namespaces/inkscape"
   xmlns:sodipodi="http://sodipodi.sourceforge.net/DTD/sodipodi-0.dtd"
   xmlns:xlink="http://www.w3.org/1999/xlink"
   xmlns="http://www.w3.org/2000/svg"
   xmlns:svg="http://www.w3.org/2000/svg">
  <sodipodi:namedview
     id="namedview1"
     pagecolor="#ffffff"
     bordercolor="#000000"
     borderopacity="0.25"
     inkscape:showpageshadow="2"
     inkscape:pageopacity="0.0"
     inkscape:pagecheckerboard="0"
     inkscape:deskcolor="#d1d1d1"
     inkscape:document-units="px"
     inkscape:zoom="1"
     inkscape:cx="394"
     inkscape:cy="292.5"
     inkscape:window-width="1854"
     inkscape:window-height="1011"
     inkscape:window-x="0"
     inkscape:window-y="0"
     inkscape:window-maximized="1"
     inkscape:current-layer="layer2" />
  <defs
     id="defs1">
    <linearGradient
       id="linearGradient2"
       inkscape:collect="always">
      <stop
         style="stop-color:#7c7c76;stop-opacity:1;"
         offset="0"
         id="stop2" />
      <stop
         style="stop-color:#646464;stop-opacity:1;"
         offset="1"
         id="stop3" />
    </linearGradient>
    <linearGradient
       inkscape:collect="always"
       xlink:href="#linearGradient29"
       id="linearGradient30"
       x1="42.645855"
       y1="96.556648"
       x2="110.77194"
       y2="96.556648"
       gradientUnits="userSpaceOnUse"
       gradientTransform="matrix(0.97637795,0,0,0.96969697,-40.965196,-84.356476)" />
    <linearGradient
       id="linearGradient29"
       inkscape:collect="always">
      <stop
         style="stop-color:#515150;stop-opacity:1;"
         offset="0"
         id="stop29" />
      <stop
         style="stop-color:#575752;stop-opacity:1;"
         offset="1"
         id="stop30" />
    </linearGradient>
    <linearGradient
       inkscape:collect="always"
       xlink:href="#linearGradient27"
       id="linearGradient28"
       x1="68.384102"
       y1="103.06983"
       x2="68.085327"
       y2="93.036972"
       gradientUnits="userSpaceOnUse"
       gradientTransform="translate(-41.972578,-87.550648)" />
    <linearGradient
       id="linearGradient27"
       inkscape:collect="always">
      <stop
         style="stop-color:#a2a273;stop-opacity:1;"
         offset="0"
         id="stop27" />
      <stop
         style="stop-color:#575717;stop-opacity:0;"
         offset="1"
         id="stop28" />
    </linearGradient>
    <linearGradient
       inkscape:collect="always"
       xlink:href="#linearGradient2"
       id="linearGradient3"
       x1="1.2358871"
       y1="1.6199014"
       x2="1.3076631"
       y2="18.75029"
       gradientUnits="userSpaceOnUse"
       gradientTransform="translate(-0.39229896,-0.71921476)" />
    <linearGradient
       inkscape:collect="always"
       xlink:href="#linearGradient29"
       id="linearGradient7"
       gradientUnits="userSpaceOnUse"
       gradientTransform="matrix(0.97637795,0,0,0.96969697,27.876326,-84.297452)"
       x1="42.645855"
       y1="96.556648"
       x2="110.77194"
       y2="96.556648" />
    <linearGradient
       inkscape:collect="always"
       xlink:href="#linearGradient27"
       id="linearGradient8"
       gradientUnits="userSpaceOnUse"
       gradientTransform="translate(26.868944,-87.491624)"
       x1="68.384102"
       y1="103.06983"
       x2="68.085327"
       y2="93.036972" />
    <linearGradient
       inkscape:collect="always"
       xlink:href="#linearGradient2"
       id="linearGradient9"
       gradientUnits="userSpaceOnUse"
       gradientTransform="translate(68.449223,-0.66019079)"
       x1="1.2358871"
       y1="1.6199014"
       x2="1.3076631"
       y2="18.75029" />
    <linearGradient
       inkscape:collect="always"
       xlink:href="#linearGradient29"
       id="linearGradient10"
       gradientUnits="userSpaceOnUse"
       gradientTransform="matrix(0.97637795,0,0,0.96969697,97.638006,-83.520285)"
       x1="42.645855"
       y1="96.556648"
       x2="110.77194"
       y2="96.556648" />
    <linearGradient
       inkscape:collect="always"
       xlink:href="#linearGradient27"
       id="linearGradient11"
       gradientUnits="userSpaceOnUse"
       gradientTransform="translate(96.630624,-86.714457)"
       x1="68.384102"
       y1="103.06983"
       x2="68.085327"
       y2="93.036972" />
    <linearGradient
       inkscape:collect="always"
       xlink:href="#linearGradient2"
       id="linearGradient12"
       gradientUnits="userSpaceOnUse"
       gradientTransform="translate(138.2109,0.1169756)"
       x1="1.2358871"
       y1="1.6199014"
       x2="1.3076631"
       y2="18.75029" />
  </defs>
  <g
     inkscape:label="Layer 1"
     inkscape:groupmode="layer"
     id="layer1" />
  <g
     inkscape:groupmode="layer"
     id="layer2"
     inkscape:label="Layer 2"
     style="display:inline">
    <g
       id="g1"
       transform="matrix(0.8,0,0,0.8,0.27026686,0.35006514)">
      <rect
         style="fill:url(#linearGradient30);fill-opacity:1;stroke:#242a1f;stroke-width:1.0787;stroke-linecap:round;stroke-linejoin:round;stroke-dasharray:none;stroke-opacity:1"
         id="rect29"
         width="66.516808"
         height="17.165627"
         x="0.67328167"
         y="0.6913963" />
      <path
         id="rect22"
         style="fill:#575717;fill-opacity:1;stroke:#242a1f;stroke-width:1.27807;stroke-linecap:round;stroke-linejoin:round;stroke-opacity:1"
         d="M 3.0872048,2.3007143 V 15.577422 H 58.389775 c 7.46952,0.0205 7.4597,-5.382346 7.45949,-6.5045117 -1e-5,-0.975807 0.11823,-6.732468 -6.97168,-6.81961 z"
         sodipodi:nodetypes="cccccc" />
      <path
         style="fill:url(#linearGradient28);stroke:none;stroke-width:1.1086;stroke-linecap:round;stroke-linejoin:round;stroke-dasharray:none;stroke-opacity:1"
         d="m 3.7118081,6.8353958 -1.2846768,0.3051139 0.020572,7.6367443 c -0.095743,1.220424 0.069586,1.475819 0.9521826,1.433439 l 56.3229421,0.01908 c 4.759798,-0.526223 7.455553,-3.544967 6.600568,-8.7839683 l -1.207372,0.147528 C 65.837012,14.126091 61.662586,14.585816 58.794261,14.88131 L 3.7448674,14.93786 Z"
         id="path27"
         sodipodi:nodetypes="cccccccccc" />
      <path
         style="fill:#cacac8;fill-opacity:1;stroke:none;stroke-width:1.1086;stroke-linecap:round;stroke-linejoin:round"
         d="M 0.13076633,0.06538316 0.98074744,1.1768968 66.625441,1.24228 67.671572,0.32691584 c 0,0 0.392298,-0.19614951 -0.3923,-0.19614951 -0.784598,0 -67.14850567,-0.0653832 -67.14850567,-0.06538317 z"
         id="path1" />
      <path
         style="fill:url(#linearGradient3);stroke:none;stroke-width:1.1086;stroke-linecap:round;stroke-linejoin:round"
         d="M 0.06538316,0.06538316 1.24228,1.3076632 V 17.326537 l -0.78459787,1.111514 c 0,0 -0.45768213,0.196149 -0.39229897,-0.326916 0.0653832,-0.523065 0,-18.04575184 0,-18.04575184 z"
         id="path2" />
      <path
         style="fill:#cacac8;fill-opacity:0.373841;stroke:none;stroke-width:1.1086;stroke-linecap:round;stroke-linejoin:round"
         d="m 12.030502,3.3345411 6.826931,-0.01915 -4.50022,11.2498699 -6.1189348,0.01518 z"
         id="path3"
         sodipodi:nodetypes="ccccc" />
      <path
         style="fill:#cacac8;fill-opacity:0.373841;stroke:none;stroke-width:1.1086;stroke-linecap:round;stroke-linejoin:round"
         d="M 20.456997,3.3153909 48.383539,3.3002068 44.152783,14.600276 17.210956,14.577159 Z"
         id="path4"
         sodipodi:nodetypes="ccccc" />
      <path
         style="fill:#cacac8;fill-opacity:0.373841;stroke:none;stroke-width:1.1086;stroke-linecap:round;stroke-linejoin:round"
         d="M 51.71808,3.3999244 47.543416,14.615459 52.416782,14.604242 56.951455,3.4190745 Z"
         id="path5"
         sodipodi:nodetypes="ccccc" />
      <rect
         style="fill:url(#linearGradient7);fill-opacity:1;stroke:#242a1f;stroke-width:1.0787;stroke-linecap:round;stroke-linejoin:round;stroke-dasharray:none;stroke-opacity:1"
         id="rect29-2"
         width="66.516808"
         height="17.165627"
         x="69.514809"
         y="0.75042105" />
      <path
         id="rect22-7"
         style="fill:#868623;fill-opacity:1;stroke:#242a1f;stroke-width:1.27807;stroke-linecap:round;stroke-linejoin:round;stroke-opacity:1"
         d="M 71.928727,2.3597382 V 15.636446 h 55.302563 c 7.46952,0.0205 7.4597,-5.382346 7.45949,-6.5045118 -1e-5,-0.975807 0.11823,-6.732468 -6.97168,-6.81961 z"
         sodipodi:nodetypes="cccccc" />
      <path
         style="fill:url(#linearGradient8);stroke:none;stroke-width:1.1086;stroke-linecap:round;stroke-linejoin:round;stroke-dasharray:none;stroke-opacity:1"
         d="m 72.55333,6.8944202 -1.284677,0.305114 0.02057,7.6367438 c -0.09574,1.220424 0.06959,1.475819 0.952183,1.433439 l 56.322934,0.01908 c 4.7598,-0.526223 7.45555,-3.544967 6.60057,-8.7839678 l -1.20737,0.147528 c 0.72098,6.5327578 -3.45344,6.9924828 -6.32177,7.2879768 l -55.049383,0.05655 z"
         id="path27-0"
         sodipodi:nodetypes="cccccccccc" />
      <path
         style="fill:#cacac8;fill-opacity:1;stroke:none;stroke-width:1.1086;stroke-linecap:round;stroke-linejoin:round"
         d="m 68.972288,0.12440721 0.849981,1.11151399 65.644681,0.06538 1.04613,-0.915364 c 0,0 0.3923,-0.19614999 -0.3923,-0.19614999 -0.78459,0 -67.148492,-0.06538 -67.148492,-0.06538 z"
         id="path1-9" />
      <path
         style="fill:url(#linearGradient9);stroke:none;stroke-width:1.1086;stroke-linecap:round;stroke-linejoin:round"
         d="M 68.906905,0.12440721 70.083802,1.3666872 V 17.385561 l -0.784598,1.111514 c 0,0 -0.457682,0.196149 -0.392299,-0.326916 0.06538,-0.523065 0,-18.04575179 0,-18.04575179 z"
         id="path2-3" />
      <path
         style="fill:#eaeaea;fill-opacity:0.373841;stroke:none;stroke-width:1.1086;stroke-linecap:round;stroke-linejoin:round"
         d="m 80.872024,3.3935652 6.826931,-0.01915 -4.50022,11.2498698 -6.118935,0.01518 z"
         id="path3-6"
         sodipodi:nodetypes="ccccc" />
      <path
         style="fill:#e9e9e8;fill-opacity:0.373841;stroke:none;stroke-width:1.1086;stroke-linecap:round;stroke-linejoin:round"
         d="M 89.298519,3.3744152 117.22505,3.3592352 112.9943,14.659304 86.052478,14.636184 Z"
         id="path4-0"
         sodipodi:nodetypes="ccccc" />
      <path
         style="fill:#e9e9e8;fill-opacity:0.373841;stroke:none;stroke-width:1.1086;stroke-linecap:round;stroke-linejoin:round"
         d="m 120.55959,3.4589482 -4.17466,11.2155348 4.87336,-0.01122 4.53468,-11.1851668 z"
         id="path5-6"
         sodipodi:nodetypes="ccccc" />
      <rect
         style="fill:url(#linearGradient10);fill-opacity:1;stroke:#242a1f;stroke-width:1.0787;stroke-linecap:round;stroke-linejoin:round;stroke-dasharray:none;stroke-opacity:1"
         id="rect29-2-7"
         width="66.516808"
         height="17.165627"
         x="139.27647"
         y="1.5275869" />
      <path
         id="rect22-7-5"
         style="fill:#868623;fill-opacity:1;stroke:#242a1f;stroke-width:1.27807;stroke-linecap:round;stroke-linejoin:round;stroke-opacity:1"
         d="M 141.69041,3.1369045 V 16.413612 h 55.30256 c 7.46952,0.0205 7.4597,-5.382346 7.45949,-6.5045115 -1e-5,-0.975807 0.11823,-6.732468 -6.97168,-6.81961 z"
         sodipodi:nodetypes="cccccc" />
      <path
         style="fill:url(#linearGradient11);stroke:none;stroke-width:1.1086;stroke-linecap:round;stroke-linejoin:round;stroke-dasharray:none;stroke-opacity:1"
         d="m 142.31501,7.6715865 -1.28468,0.305114 0.0206,7.6367435 c -0.0957,1.220424 0.0696,1.475819 0.95219,1.433439 l 56.32293,0.01908 c 4.7598,-0.526223 7.45555,-3.544967 6.60057,-8.7839675 l -1.20737,0.147528 c 0.72098,6.5327575 -3.45344,6.9924825 -6.32177,7.2879765 l -55.04938,0.05655 z"
         id="path27-0-9"
         sodipodi:nodetypes="cccccccccc" />
      <path
         style="fill:#cacac8;fill-opacity:1;stroke:none;stroke-width:1.1086;stroke-linecap:round;stroke-linejoin:round"
         d="m 138.73397,0.9015735 0.84998,1.111514 65.64468,0.06538 1.04613,-0.915364 c 0,0 0.3923,-0.19615 -0.3923,-0.19615 -0.78459,0 -67.14849,-0.06538 -67.14849,-0.06538 z"
         id="path1-9-2" />
      <path
         style="fill:url(#linearGradient12);stroke:none;stroke-width:1.1086;stroke-linecap:round;stroke-linejoin:round"
         d="m 138.66858,0.9015735 1.1769,1.24228 V 18.162727 l -0.7846,1.111514 c 0,0 -0.45768,0.196149 -0.3923,-0.326916 0.0654,-0.523065 0,-18.0457515 0,-18.0457515 z"
         id="path2-3-2" />
      <path
         style="fill:#eaeaea;fill-opacity:0.373841;stroke:none;stroke-width:1.1086;stroke-linecap:round;stroke-linejoin:round"
         d="m 150.6337,4.1707315 6.82693,-0.01915 -4.50022,11.2498695 -6.11893,0.01518 z"
         id="path3-6-8"
         sodipodi:nodetypes="ccccc" />
      <path
         style="fill:#e9e9e8;fill-opacity:0.373841;stroke:none;stroke-width:1.1086;stroke-linecap:round;stroke-linejoin:round"
         d="m 159.0602,4.1515815 27.92653,-0.01518 -4.23075,11.3000685 -26.94182,-0.02312 z"
         id="path4-0-9"
         sodipodi:nodetypes="ccccc" />
      <path
         style="fill:#e9e9e8;fill-opacity:0.373841;stroke:none;stroke-width:1.1086;stroke-linecap:round;stroke-linejoin:round"
         d="m 190.32127,4.2361145 -4.17466,11.2155345 4.87336,-0.01122 4.53468,-11.1851665 z"
         id="path5-6-7"
         sodipodi:nodetypes="ccccc" />
    </g>
  </g>
</svg>
